<mxfile host="app.diagrams.net" modified="2022-05-21T11:22:28.909Z" agent="5.0 (Windows NT 10.0; Win64; x64) AppleWebKit/537.36 (KHTML, like Gecko) Chrome/101.0.4951.67 Safari/537.36" etag="8Enk-Z-sK8IG0B1QrKCp" version="18.1.1" type="github">
  <diagram id="YODZdSHpGWmJinE2-0QO" name="Page-1">
    <mxGraphModel dx="1769" dy="1783" grid="1" gridSize="10" guides="1" tooltips="1" connect="1" arrows="1" fold="1" page="1" pageScale="1" pageWidth="827" pageHeight="1169" math="0" shadow="0">
      <root>
        <mxCell id="0" />
        <mxCell id="1" parent="0" />
        <mxCell id="VCrqgzYEbr3KQQ-ShSqz-1" value="Locatario" style="rounded=0;whiteSpace=wrap;html=1;" parent="1" vertex="1">
          <mxGeometry x="625" y="230" width="90" height="50" as="geometry" />
        </mxCell>
        <mxCell id="VCrqgzYEbr3KQQ-ShSqz-6" value="Locador" style="rounded=0;whiteSpace=wrap;html=1;" parent="1" vertex="1">
          <mxGeometry x="40" y="230" width="90" height="50" as="geometry" />
        </mxCell>
        <mxCell id="VCrqgzYEbr3KQQ-ShSqz-7" value="Veículo" style="rounded=0;whiteSpace=wrap;html=1;" parent="1" vertex="1">
          <mxGeometry x="340" y="355" width="90" height="50" as="geometry" />
        </mxCell>
        <mxCell id="VCrqgzYEbr3KQQ-ShSqz-18" value="Aluga" style="rhombus;whiteSpace=wrap;html=1;" parent="1" vertex="1">
          <mxGeometry x="625" y="350" width="90" height="60" as="geometry" />
        </mxCell>
        <mxCell id="VCrqgzYEbr3KQQ-ShSqz-19" value="Cadastra" style="rhombus;whiteSpace=wrap;html=1;" parent="1" vertex="1">
          <mxGeometry x="40" y="350" width="90" height="60" as="geometry" />
        </mxCell>
        <mxCell id="VCrqgzYEbr3KQQ-ShSqz-21" value="Carro" style="rounded=0;whiteSpace=wrap;html=1;" parent="1" vertex="1">
          <mxGeometry x="70" y="570" width="120" height="60" as="geometry" />
        </mxCell>
        <mxCell id="VCrqgzYEbr3KQQ-ShSqz-22" value="Moto" style="rounded=0;whiteSpace=wrap;html=1;" parent="1" vertex="1">
          <mxGeometry x="325" y="570" width="120" height="60" as="geometry" />
        </mxCell>
        <mxCell id="VCrqgzYEbr3KQQ-ShSqz-23" value="Não_motorizados" style="rounded=0;whiteSpace=wrap;html=1;" parent="1" vertex="1">
          <mxGeometry x="580" y="570" width="120" height="60" as="geometry" />
        </mxCell>
        <mxCell id="VCrqgzYEbr3KQQ-ShSqz-25" value="d" style="ellipse;whiteSpace=wrap;html=1;aspect=fixed;" parent="1" vertex="1">
          <mxGeometry x="370" y="470" width="30" height="30" as="geometry" />
        </mxCell>
        <mxCell id="VCrqgzYEbr3KQQ-ShSqz-28" value="Usuario" style="whiteSpace=wrap;html=1;" parent="1" vertex="1">
          <mxGeometry x="330" y="50" width="110" height="50" as="geometry" />
        </mxCell>
        <mxCell id="VCrqgzYEbr3KQQ-ShSqz-29" value="d" style="ellipse;whiteSpace=wrap;html=1;aspect=fixed;" parent="1" vertex="1">
          <mxGeometry x="375" y="140" width="20" height="20" as="geometry" />
        </mxCell>
        <mxCell id="VCrqgzYEbr3KQQ-ShSqz-32" value="" style="endArrow=none;html=1;rounded=0;exitX=0.5;exitY=1;exitDx=0;exitDy=0;entryX=0.5;entryY=0;entryDx=0;entryDy=0;shape=link;" parent="1" source="VCrqgzYEbr3KQQ-ShSqz-28" target="VCrqgzYEbr3KQQ-ShSqz-29" edge="1">
          <mxGeometry width="50" height="50" relative="1" as="geometry">
            <mxPoint x="580" y="180" as="sourcePoint" />
            <mxPoint x="385" y="110" as="targetPoint" />
          </mxGeometry>
        </mxCell>
        <mxCell id="VCrqgzYEbr3KQQ-ShSqz-33" value="" style="endArrow=none;html=1;rounded=0;entryX=0.5;entryY=0;entryDx=0;entryDy=0;exitX=0.5;exitY=1;exitDx=0;exitDy=0;" parent="1" source="VCrqgzYEbr3KQQ-ShSqz-29" target="VCrqgzYEbr3KQQ-ShSqz-1" edge="1">
          <mxGeometry width="50" height="50" relative="1" as="geometry">
            <mxPoint x="350" y="190" as="sourcePoint" />
            <mxPoint x="355" y="170" as="targetPoint" />
          </mxGeometry>
        </mxCell>
        <mxCell id="VCrqgzYEbr3KQQ-ShSqz-34" value="" style="endArrow=none;html=1;rounded=0;exitX=0.5;exitY=0;exitDx=0;exitDy=0;entryX=0.5;entryY=1;entryDx=0;entryDy=0;" parent="1" source="VCrqgzYEbr3KQQ-ShSqz-6" target="VCrqgzYEbr3KQQ-ShSqz-29" edge="1">
          <mxGeometry width="50" height="50" relative="1" as="geometry">
            <mxPoint x="218.75" y="140" as="sourcePoint" />
            <mxPoint x="218.75" y="180" as="targetPoint" />
          </mxGeometry>
        </mxCell>
        <mxCell id="VCrqgzYEbr3KQQ-ShSqz-35" value="" style="endArrow=none;html=1;rounded=0;exitX=0.5;exitY=1;exitDx=0;exitDy=0;entryX=0.5;entryY=0;entryDx=0;entryDy=0;" parent="1" source="VCrqgzYEbr3KQQ-ShSqz-6" target="VCrqgzYEbr3KQQ-ShSqz-19" edge="1">
          <mxGeometry width="50" height="50" relative="1" as="geometry">
            <mxPoint x="95" y="240" as="sourcePoint" />
            <mxPoint x="225" y="190" as="targetPoint" />
          </mxGeometry>
        </mxCell>
        <mxCell id="VCrqgzYEbr3KQQ-ShSqz-36" value="" style="endArrow=none;html=1;rounded=0;entryX=0.5;entryY=0;entryDx=0;entryDy=0;exitX=0.5;exitY=1;exitDx=0;exitDy=0;" parent="1" source="VCrqgzYEbr3KQQ-ShSqz-1" target="VCrqgzYEbr3KQQ-ShSqz-18" edge="1">
          <mxGeometry width="50" height="50" relative="1" as="geometry">
            <mxPoint x="194" y="190" as="sourcePoint" />
            <mxPoint x="344" y="240" as="targetPoint" />
          </mxGeometry>
        </mxCell>
        <mxCell id="VCrqgzYEbr3KQQ-ShSqz-38" value="" style="endArrow=none;html=1;rounded=0;exitX=1;exitY=0.5;exitDx=0;exitDy=0;entryX=0;entryY=0.5;entryDx=0;entryDy=0;" parent="1" source="VCrqgzYEbr3KQQ-ShSqz-19" target="VCrqgzYEbr3KQQ-ShSqz-7" edge="1">
          <mxGeometry width="50" height="50" relative="1" as="geometry">
            <mxPoint x="95" y="290" as="sourcePoint" />
            <mxPoint x="200" y="380" as="targetPoint" />
          </mxGeometry>
        </mxCell>
        <mxCell id="VCrqgzYEbr3KQQ-ShSqz-39" value="" style="endArrow=none;html=1;rounded=0;exitX=1;exitY=0.5;exitDx=0;exitDy=0;entryX=0;entryY=0.5;entryDx=0;entryDy=0;" parent="1" source="VCrqgzYEbr3KQQ-ShSqz-7" target="VCrqgzYEbr3KQQ-ShSqz-18" edge="1">
          <mxGeometry width="50" height="50" relative="1" as="geometry">
            <mxPoint x="140" y="390" as="sourcePoint" />
            <mxPoint x="223.75" y="390" as="targetPoint" />
          </mxGeometry>
        </mxCell>
        <mxCell id="VCrqgzYEbr3KQQ-ShSqz-40" value="" style="endArrow=none;html=1;rounded=0;entryX=0.5;entryY=1;entryDx=0;entryDy=0;exitX=0.5;exitY=0;exitDx=0;exitDy=0;shape=link;" parent="1" source="VCrqgzYEbr3KQQ-ShSqz-25" target="VCrqgzYEbr3KQQ-ShSqz-7" edge="1">
          <mxGeometry width="50" height="50" relative="1" as="geometry">
            <mxPoint x="546.25" y="470" as="sourcePoint" />
            <mxPoint x="596.25" y="420" as="targetPoint" />
          </mxGeometry>
        </mxCell>
        <mxCell id="VCrqgzYEbr3KQQ-ShSqz-41" value="" style="endArrow=none;html=1;rounded=0;entryX=0.5;entryY=1;entryDx=0;entryDy=0;exitX=0.5;exitY=0;exitDx=0;exitDy=0;" parent="1" source="VCrqgzYEbr3KQQ-ShSqz-23" target="VCrqgzYEbr3KQQ-ShSqz-25" edge="1">
          <mxGeometry width="50" height="50" relative="1" as="geometry">
            <mxPoint x="628.25" y="565" as="sourcePoint" />
            <mxPoint x="628.25" y="500" as="targetPoint" />
          </mxGeometry>
        </mxCell>
        <mxCell id="VCrqgzYEbr3KQQ-ShSqz-42" value="" style="endArrow=none;html=1;rounded=0;exitX=0.5;exitY=0;exitDx=0;exitDy=0;entryX=0.5;entryY=1;entryDx=0;entryDy=0;" parent="1" source="VCrqgzYEbr3KQQ-ShSqz-22" target="VCrqgzYEbr3KQQ-ShSqz-25" edge="1">
          <mxGeometry width="50" height="50" relative="1" as="geometry">
            <mxPoint x="385" y="560" as="sourcePoint" />
            <mxPoint x="385.25" y="510" as="targetPoint" />
          </mxGeometry>
        </mxCell>
        <mxCell id="VCrqgzYEbr3KQQ-ShSqz-43" value="" style="endArrow=none;html=1;rounded=0;entryX=0.5;entryY=1;entryDx=0;entryDy=0;exitX=0.5;exitY=0;exitDx=0;exitDy=0;" parent="1" source="VCrqgzYEbr3KQQ-ShSqz-21" target="VCrqgzYEbr3KQQ-ShSqz-25" edge="1">
          <mxGeometry width="50" height="50" relative="1" as="geometry">
            <mxPoint x="190" y="535" as="sourcePoint" />
            <mxPoint x="190" y="470" as="targetPoint" />
          </mxGeometry>
        </mxCell>
        <mxCell id="VCrqgzYEbr3KQQ-ShSqz-45" value="" style="endArrow=none;html=1;rounded=0;entryX=0;entryY=0.5;entryDx=0;entryDy=0;exitX=1;exitY=0.5;exitDx=0;exitDy=0;" parent="1" source="VCrqgzYEbr3KQQ-ShSqz-47" edge="1">
          <mxGeometry width="50" height="50" relative="1" as="geometry">
            <mxPoint x="460" y="255" as="sourcePoint" />
            <mxPoint x="625" y="254.5" as="targetPoint" />
          </mxGeometry>
        </mxCell>
        <mxCell id="VCrqgzYEbr3KQQ-ShSqz-47" value="Devolve" style="rhombus;whiteSpace=wrap;html=1;" parent="1" vertex="1">
          <mxGeometry x="340" y="230" width="90" height="50" as="geometry" />
        </mxCell>
        <mxCell id="VCrqgzYEbr3KQQ-ShSqz-48" value="" style="endArrow=none;html=1;rounded=0;entryX=0.5;entryY=0;entryDx=0;entryDy=0;exitX=0.5;exitY=1;exitDx=0;exitDy=0;" parent="1" source="VCrqgzYEbr3KQQ-ShSqz-47" target="VCrqgzYEbr3KQQ-ShSqz-7" edge="1">
          <mxGeometry width="50" height="50" relative="1" as="geometry">
            <mxPoint x="440" y="265" as="sourcePoint" />
            <mxPoint x="635" y="264.5" as="targetPoint" />
          </mxGeometry>
        </mxCell>
        <mxCell id="VCrqgzYEbr3KQQ-ShSqz-50" value="Realiza" style="rhombus;whiteSpace=wrap;html=1;" parent="1" vertex="1">
          <mxGeometry x="900" y="230" width="90" height="50" as="geometry" />
        </mxCell>
        <mxCell id="VCrqgzYEbr3KQQ-ShSqz-51" value="Pagamento" style="rounded=0;whiteSpace=wrap;html=1;" parent="1" vertex="1">
          <mxGeometry x="900" y="360" width="90" height="50" as="geometry" />
        </mxCell>
        <mxCell id="VCrqgzYEbr3KQQ-ShSqz-52" value="" style="endArrow=none;html=1;rounded=0;entryX=0;entryY=0.5;entryDx=0;entryDy=0;exitX=1;exitY=0.5;exitDx=0;exitDy=0;" parent="1" source="VCrqgzYEbr3KQQ-ShSqz-1" target="VCrqgzYEbr3KQQ-ShSqz-50" edge="1">
          <mxGeometry width="50" height="50" relative="1" as="geometry">
            <mxPoint x="440" y="265" as="sourcePoint" />
            <mxPoint x="635" y="264.5" as="targetPoint" />
          </mxGeometry>
        </mxCell>
        <mxCell id="VCrqgzYEbr3KQQ-ShSqz-53" value="" style="endArrow=none;html=1;rounded=0;entryX=0.5;entryY=1;entryDx=0;entryDy=0;exitX=0.5;exitY=0;exitDx=0;exitDy=0;" parent="1" source="VCrqgzYEbr3KQQ-ShSqz-51" target="VCrqgzYEbr3KQQ-ShSqz-50" edge="1">
          <mxGeometry width="50" height="50" relative="1" as="geometry">
            <mxPoint x="725" y="265" as="sourcePoint" />
            <mxPoint x="910" y="265" as="targetPoint" />
          </mxGeometry>
        </mxCell>
        <mxCell id="VCrqgzYEbr3KQQ-ShSqz-54" value="N" style="text;html=1;align=center;verticalAlign=middle;resizable=0;points=[];autosize=1;strokeColor=none;fillColor=none;" parent="1" vertex="1">
          <mxGeometry x="310" y="360" width="20" height="20" as="geometry" />
        </mxCell>
        <mxCell id="VCrqgzYEbr3KQQ-ShSqz-55" value="1" style="text;html=1;align=center;verticalAlign=middle;resizable=0;points=[];autosize=1;strokeColor=none;fillColor=none;" parent="1" vertex="1">
          <mxGeometry x="90" y="290" width="20" height="20" as="geometry" />
        </mxCell>
        <mxCell id="VCrqgzYEbr3KQQ-ShSqz-56" value="N" style="text;html=1;align=center;verticalAlign=middle;resizable=0;points=[];autosize=1;strokeColor=none;fillColor=none;" parent="1" vertex="1">
          <mxGeometry x="440" y="355" width="20" height="20" as="geometry" />
        </mxCell>
        <mxCell id="VCrqgzYEbr3KQQ-ShSqz-57" value="N" style="text;html=1;align=center;verticalAlign=middle;resizable=0;points=[];autosize=1;strokeColor=none;fillColor=none;" parent="1" vertex="1">
          <mxGeometry x="668.75" y="290" width="20" height="20" as="geometry" />
        </mxCell>
        <mxCell id="VCrqgzYEbr3KQQ-ShSqz-58" value="N" style="text;html=1;align=center;verticalAlign=middle;resizable=0;points=[];autosize=1;strokeColor=none;fillColor=none;" parent="1" vertex="1">
          <mxGeometry x="590" y="230" width="20" height="20" as="geometry" />
        </mxCell>
        <mxCell id="VCrqgzYEbr3KQQ-ShSqz-59" value="N" style="text;html=1;align=center;verticalAlign=middle;resizable=0;points=[];autosize=1;strokeColor=none;fillColor=none;" parent="1" vertex="1">
          <mxGeometry x="360" y="330" width="20" height="20" as="geometry" />
        </mxCell>
        <mxCell id="VCrqgzYEbr3KQQ-ShSqz-61" value="N" style="text;html=1;align=center;verticalAlign=middle;resizable=0;points=[];autosize=1;strokeColor=none;fillColor=none;" parent="1" vertex="1">
          <mxGeometry x="950" y="340" width="20" height="20" as="geometry" />
        </mxCell>
        <mxCell id="VCrqgzYEbr3KQQ-ShSqz-62" value="1" style="text;html=1;align=center;verticalAlign=middle;resizable=0;points=[];autosize=1;strokeColor=none;fillColor=none;" parent="1" vertex="1">
          <mxGeometry x="730" y="230" width="20" height="20" as="geometry" />
        </mxCell>
        <mxCell id="VCrqgzYEbr3KQQ-ShSqz-63" value="Nome" style="ellipse;whiteSpace=wrap;html=1;" parent="1" vertex="1">
          <mxGeometry x="220" y="60" width="50" height="30" as="geometry" />
        </mxCell>
        <mxCell id="VCrqgzYEbr3KQQ-ShSqz-64" value="Numero" style="ellipse;whiteSpace=wrap;html=1;" parent="1" vertex="1">
          <mxGeometry x="640" y="100" width="60" height="30" as="geometry" />
        </mxCell>
        <mxCell id="VCrqgzYEbr3KQQ-ShSqz-65" value="Rua" style="ellipse;whiteSpace=wrap;html=1;" parent="1" vertex="1">
          <mxGeometry x="640" y="20" width="60" height="30" as="geometry" />
        </mxCell>
        <mxCell id="VCrqgzYEbr3KQQ-ShSqz-67" value="Bairro" style="ellipse;whiteSpace=wrap;html=1;" parent="1" vertex="1">
          <mxGeometry x="640" y="60" width="60" height="30" as="geometry" />
        </mxCell>
        <mxCell id="VCrqgzYEbr3KQQ-ShSqz-68" value="" style="endArrow=none;html=1;rounded=0;exitX=1;exitY=0.5;exitDx=0;exitDy=0;entryX=0;entryY=0.5;entryDx=0;entryDy=0;" parent="1" source="VCrqgzYEbr3KQQ-ShSqz-63" target="VCrqgzYEbr3KQQ-ShSqz-28" edge="1">
          <mxGeometry width="50" height="50" relative="1" as="geometry">
            <mxPoint x="300" y="80" as="sourcePoint" />
            <mxPoint x="350" y="30" as="targetPoint" />
          </mxGeometry>
        </mxCell>
        <mxCell id="VCrqgzYEbr3KQQ-ShSqz-70" value="" style="endArrow=none;html=1;rounded=0;exitX=0;exitY=0.5;exitDx=0;exitDy=0;entryX=1;entryY=0.5;entryDx=0;entryDy=0;" parent="1" source="VCrqgzYEbr3KQQ-ShSqz-71" target="VCrqgzYEbr3KQQ-ShSqz-28" edge="1">
          <mxGeometry width="50" height="50" relative="1" as="geometry">
            <mxPoint x="470" y="75" as="sourcePoint" />
            <mxPoint x="440" y="80" as="targetPoint" />
          </mxGeometry>
        </mxCell>
        <mxCell id="VCrqgzYEbr3KQQ-ShSqz-71" value="Endereco" style="ellipse;whiteSpace=wrap;html=1;" parent="1" vertex="1">
          <mxGeometry x="490" y="60" width="60" height="30" as="geometry" />
        </mxCell>
        <mxCell id="VCrqgzYEbr3KQQ-ShSqz-73" value="" style="endArrow=none;html=1;rounded=0;exitX=0;exitY=0.5;exitDx=0;exitDy=0;entryX=1;entryY=0.5;entryDx=0;entryDy=0;" parent="1" source="VCrqgzYEbr3KQQ-ShSqz-64" target="VCrqgzYEbr3KQQ-ShSqz-71" edge="1">
          <mxGeometry width="50" height="50" relative="1" as="geometry">
            <mxPoint x="500" y="85" as="sourcePoint" />
            <mxPoint x="450" y="85" as="targetPoint" />
          </mxGeometry>
        </mxCell>
        <mxCell id="VCrqgzYEbr3KQQ-ShSqz-74" value="" style="endArrow=none;html=1;rounded=0;exitX=1;exitY=0.5;exitDx=0;exitDy=0;entryX=0;entryY=0.5;entryDx=0;entryDy=0;" parent="1" source="VCrqgzYEbr3KQQ-ShSqz-71" target="VCrqgzYEbr3KQQ-ShSqz-67" edge="1">
          <mxGeometry width="50" height="50" relative="1" as="geometry">
            <mxPoint x="510" y="95" as="sourcePoint" />
            <mxPoint x="460" y="95" as="targetPoint" />
          </mxGeometry>
        </mxCell>
        <mxCell id="VCrqgzYEbr3KQQ-ShSqz-75" value="" style="endArrow=none;html=1;rounded=0;exitX=1;exitY=0.5;exitDx=0;exitDy=0;entryX=0;entryY=0.5;entryDx=0;entryDy=0;" parent="1" source="VCrqgzYEbr3KQQ-ShSqz-71" target="VCrqgzYEbr3KQQ-ShSqz-65" edge="1">
          <mxGeometry width="50" height="50" relative="1" as="geometry">
            <mxPoint x="520" y="105" as="sourcePoint" />
            <mxPoint x="470" y="105" as="targetPoint" />
          </mxGeometry>
        </mxCell>
        <mxCell id="VCrqgzYEbr3KQQ-ShSqz-76" value="CPF" style="ellipse;whiteSpace=wrap;html=1;align=center;fontStyle=4;" parent="1" vertex="1">
          <mxGeometry x="270" y="-40" width="60" height="30" as="geometry" />
        </mxCell>
        <mxCell id="VCrqgzYEbr3KQQ-ShSqz-77" value="" style="endArrow=none;html=1;rounded=0;exitX=0.706;exitY=1.022;exitDx=0;exitDy=0;entryX=0;entryY=0;entryDx=0;entryDy=0;exitPerimeter=0;" parent="1" source="VCrqgzYEbr3KQQ-ShSqz-76" target="VCrqgzYEbr3KQQ-ShSqz-28" edge="1">
          <mxGeometry width="50" height="50" relative="1" as="geometry">
            <mxPoint x="280" y="85" as="sourcePoint" />
            <mxPoint x="340" y="85" as="targetPoint" />
          </mxGeometry>
        </mxCell>
        <mxCell id="v5OyXtRUodhY2XJXaBOK-1" value="Nascimento" style="ellipse;whiteSpace=wrap;html=1;" parent="1" vertex="1">
          <mxGeometry x="350" y="-42.5" width="70" height="35" as="geometry" />
        </mxCell>
        <mxCell id="v5OyXtRUodhY2XJXaBOK-4" value="" style="endArrow=none;html=1;rounded=0;entryX=0;entryY=1;entryDx=0;entryDy=0;" parent="1" target="v5OyXtRUodhY2XJXaBOK-6" edge="1">
          <mxGeometry width="50" height="50" relative="1" as="geometry">
            <mxPoint x="430" y="50" as="sourcePoint" />
            <mxPoint x="480" as="targetPoint" />
          </mxGeometry>
        </mxCell>
        <mxCell id="v5OyXtRUodhY2XJXaBOK-5" value="" style="endArrow=none;html=1;rounded=0;exitX=0.5;exitY=0;exitDx=0;exitDy=0;entryX=0.5;entryY=1;entryDx=0;entryDy=0;" parent="1" source="VCrqgzYEbr3KQQ-ShSqz-28" target="v5OyXtRUodhY2XJXaBOK-1" edge="1">
          <mxGeometry width="50" height="50" relative="1" as="geometry">
            <mxPoint x="340" y="60" as="sourcePoint" />
            <mxPoint x="390" y="10" as="targetPoint" />
          </mxGeometry>
        </mxCell>
        <mxCell id="v5OyXtRUodhY2XJXaBOK-6" value="Email" style="ellipse;whiteSpace=wrap;html=1;" parent="1" vertex="1">
          <mxGeometry x="455" y="-30" width="50" height="30" as="geometry" />
        </mxCell>
        <mxCell id="v5OyXtRUodhY2XJXaBOK-7" value="Telefone" style="ellipse;whiteSpace=wrap;html=1;" parent="1" vertex="1">
          <mxGeometry x="220" width="50" height="30" as="geometry" />
        </mxCell>
        <mxCell id="v5OyXtRUodhY2XJXaBOK-9" value="" style="endArrow=none;html=1;rounded=0;entryX=0;entryY=0.25;entryDx=0;entryDy=0;exitX=1.007;exitY=0.822;exitDx=0;exitDy=0;exitPerimeter=0;" parent="1" source="v5OyXtRUodhY2XJXaBOK-7" target="VCrqgzYEbr3KQQ-ShSqz-28" edge="1">
          <mxGeometry width="50" height="50" relative="1" as="geometry">
            <mxPoint x="250" y="70" as="sourcePoint" />
            <mxPoint x="300" y="20" as="targetPoint" />
          </mxGeometry>
        </mxCell>
        <mxCell id="v5OyXtRUodhY2XJXaBOK-10" value="Quant_vec_cad" style="ellipse;whiteSpace=wrap;html=1;" parent="1" vertex="1">
          <mxGeometry x="25" y="150" width="105" height="40" as="geometry" />
        </mxCell>
        <mxCell id="v5OyXtRUodhY2XJXaBOK-12" value="" style="endArrow=none;html=1;rounded=0;entryX=0.5;entryY=1;entryDx=0;entryDy=0;" parent="1" target="v5OyXtRUodhY2XJXaBOK-10" edge="1">
          <mxGeometry width="50" height="50" relative="1" as="geometry">
            <mxPoint x="80" y="230" as="sourcePoint" />
            <mxPoint x="130" y="180" as="targetPoint" />
          </mxGeometry>
        </mxCell>
        <mxCell id="v5OyXtRUodhY2XJXaBOK-14" value="CNH" style="ellipse;whiteSpace=wrap;html=1;" parent="1" vertex="1">
          <mxGeometry x="670" y="160" width="60" height="30" as="geometry" />
        </mxCell>
        <mxCell id="v5OyXtRUodhY2XJXaBOK-15" value="" style="endArrow=none;html=1;rounded=0;exitX=1;exitY=0.5;exitDx=0;exitDy=0;entryX=0.5;entryY=1;entryDx=0;entryDy=0;" parent="1" target="v5OyXtRUodhY2XJXaBOK-14" edge="1">
          <mxGeometry width="50" height="50" relative="1" as="geometry">
            <mxPoint x="677" y="230" as="sourcePoint" />
            <mxPoint x="597" y="260" as="targetPoint" />
          </mxGeometry>
        </mxCell>
        <mxCell id="v5OyXtRUodhY2XJXaBOK-18" value="Data_devolução" style="ellipse;whiteSpace=wrap;html=1;" parent="1" vertex="1">
          <mxGeometry x="220" y="223.75" width="100" height="32.5" as="geometry" />
        </mxCell>
        <mxCell id="v5OyXtRUodhY2XJXaBOK-19" value="" style="endArrow=none;html=1;rounded=0;entryX=0.093;entryY=0.373;entryDx=0;entryDy=0;entryPerimeter=0;exitX=1;exitY=0.5;exitDx=0;exitDy=0;" parent="1" source="v5OyXtRUodhY2XJXaBOK-18" target="VCrqgzYEbr3KQQ-ShSqz-47" edge="1">
          <mxGeometry width="50" height="50" relative="1" as="geometry">
            <mxPoint x="270" y="320" as="sourcePoint" />
            <mxPoint x="320" y="270" as="targetPoint" />
          </mxGeometry>
        </mxCell>
        <mxCell id="v5OyXtRUodhY2XJXaBOK-22" value="Status_vistoria" style="ellipse;whiteSpace=wrap;html=1;" parent="1" vertex="1">
          <mxGeometry x="225" y="275" width="90" height="28.75" as="geometry" />
        </mxCell>
        <mxCell id="v5OyXtRUodhY2XJXaBOK-23" value="" style="endArrow=none;html=1;rounded=0;exitX=0.13;exitY=0.68;exitDx=0;exitDy=0;entryX=1;entryY=0;entryDx=0;entryDy=0;exitPerimeter=0;" parent="1" source="VCrqgzYEbr3KQQ-ShSqz-47" target="v5OyXtRUodhY2XJXaBOK-22" edge="1">
          <mxGeometry width="50" height="50" relative="1" as="geometry">
            <mxPoint x="360" y="256.25" as="sourcePoint" />
            <mxPoint x="280" y="286.25" as="targetPoint" />
          </mxGeometry>
        </mxCell>
        <mxCell id="v5OyXtRUodhY2XJXaBOK-24" value="Data_aluguel" style="ellipse;whiteSpace=wrap;html=1;" parent="1" vertex="1">
          <mxGeometry x="677" y="433.75" width="83" height="32.5" as="geometry" />
        </mxCell>
        <mxCell id="v5OyXtRUodhY2XJXaBOK-26" value="Status_pag" style="ellipse;whiteSpace=wrap;html=1;" parent="1" vertex="1">
          <mxGeometry x="750" y="400" width="80" height="30" as="geometry" />
        </mxCell>
        <mxCell id="v5OyXtRUodhY2XJXaBOK-28" value="Status_vistoria" style="ellipse;whiteSpace=wrap;html=1;" parent="1" vertex="1">
          <mxGeometry x="625" y="470" width="90" height="28.75" as="geometry" />
        </mxCell>
        <mxCell id="v5OyXtRUodhY2XJXaBOK-29" value="" style="endArrow=none;html=1;rounded=0;exitX=1;exitY=1;exitDx=0;exitDy=0;entryX=0.5;entryY=0;entryDx=0;entryDy=0;" parent="1" source="VCrqgzYEbr3KQQ-ShSqz-18" target="v5OyXtRUodhY2XJXaBOK-24" edge="1">
          <mxGeometry width="50" height="50" relative="1" as="geometry">
            <mxPoint x="808.7" y="474.0000000000002" as="sourcePoint" />
            <mxPoint x="720" y="430" as="targetPoint" />
          </mxGeometry>
        </mxCell>
        <mxCell id="v5OyXtRUodhY2XJXaBOK-30" value="" style="endArrow=none;html=1;rounded=0;exitX=0.934;exitY=0.55;exitDx=0;exitDy=0;entryX=0;entryY=0.5;entryDx=0;entryDy=0;exitPerimeter=0;" parent="1" source="VCrqgzYEbr3KQQ-ShSqz-18" target="v5OyXtRUodhY2XJXaBOK-26" edge="1">
          <mxGeometry width="50" height="50" relative="1" as="geometry">
            <mxPoint x="709.75" y="380" as="sourcePoint" />
            <mxPoint x="744.25" y="418.75" as="targetPoint" />
          </mxGeometry>
        </mxCell>
        <mxCell id="v5OyXtRUodhY2XJXaBOK-31" value="" style="endArrow=none;html=1;rounded=0;exitX=0.333;exitY=0.817;exitDx=0;exitDy=0;entryX=0.274;entryY=0.035;entryDx=0;entryDy=0;entryPerimeter=0;exitPerimeter=0;" parent="1" source="VCrqgzYEbr3KQQ-ShSqz-18" target="v5OyXtRUodhY2XJXaBOK-28" edge="1">
          <mxGeometry width="50" height="50" relative="1" as="geometry">
            <mxPoint x="654.25" y="400" as="sourcePoint" />
            <mxPoint x="688.75" y="438.75" as="targetPoint" />
          </mxGeometry>
        </mxCell>
        <mxCell id="v5OyXtRUodhY2XJXaBOK-32" value="Periodo_aluguel" style="ellipse;whiteSpace=wrap;html=1;" parent="1" vertex="1">
          <mxGeometry x="750" y="345" width="100" height="35" as="geometry" />
        </mxCell>
        <mxCell id="v5OyXtRUodhY2XJXaBOK-33" value="" style="endArrow=none;html=1;rounded=0;exitX=1;exitY=0;exitDx=0;exitDy=0;entryX=0;entryY=0.5;entryDx=0;entryDy=0;" parent="1" source="VCrqgzYEbr3KQQ-ShSqz-18" target="v5OyXtRUodhY2XJXaBOK-32" edge="1">
          <mxGeometry width="50" height="50" relative="1" as="geometry">
            <mxPoint x="702.06" y="327.9999999999998" as="sourcePoint" />
            <mxPoint x="740.0000000000032" y="360" as="targetPoint" />
          </mxGeometry>
        </mxCell>
        <mxCell id="v5OyXtRUodhY2XJXaBOK-36" value="Tipo_pagamento" style="ellipse;shape=doubleEllipse;whiteSpace=wrap;html=1;" parent="1" vertex="1">
          <mxGeometry x="890" y="440" width="110" height="38.75" as="geometry" />
        </mxCell>
        <mxCell id="v5OyXtRUodhY2XJXaBOK-37" value="" style="endArrow=none;html=1;rounded=0;entryX=0.5;entryY=1;entryDx=0;entryDy=0;exitX=0.5;exitY=0;exitDx=0;exitDy=0;" parent="1" source="v5OyXtRUodhY2XJXaBOK-36" target="VCrqgzYEbr3KQQ-ShSqz-51" edge="1">
          <mxGeometry width="50" height="50" relative="1" as="geometry">
            <mxPoint x="860" y="500" as="sourcePoint" />
            <mxPoint x="910" y="450" as="targetPoint" />
          </mxGeometry>
        </mxCell>
        <mxCell id="v5OyXtRUodhY2XJXaBOK-38" value="Pix" style="ellipse;whiteSpace=wrap;html=1;" parent="1" vertex="1">
          <mxGeometry x="830" y="500" width="60" height="30" as="geometry" />
        </mxCell>
        <mxCell id="v5OyXtRUodhY2XJXaBOK-39" value="Boleto" style="ellipse;whiteSpace=wrap;html=1;" parent="1" vertex="1">
          <mxGeometry x="880" y="530" width="60" height="30" as="geometry" />
        </mxCell>
        <mxCell id="v5OyXtRUodhY2XJXaBOK-40" value="Cartao_debito" style="ellipse;whiteSpace=wrap;html=1;" parent="1" vertex="1">
          <mxGeometry x="1000" y="500" width="90" height="30" as="geometry" />
        </mxCell>
        <mxCell id="v5OyXtRUodhY2XJXaBOK-41" value="" style="endArrow=none;html=1;rounded=0;entryX=0.087;entryY=0.78;entryDx=0;entryDy=0;entryPerimeter=0;exitX=0.5;exitY=0;exitDx=0;exitDy=0;" parent="1" source="v5OyXtRUodhY2XJXaBOK-38" target="v5OyXtRUodhY2XJXaBOK-36" edge="1">
          <mxGeometry width="50" height="50" relative="1" as="geometry">
            <mxPoint x="860" y="570" as="sourcePoint" />
            <mxPoint x="910" y="520" as="targetPoint" />
          </mxGeometry>
        </mxCell>
        <mxCell id="v5OyXtRUodhY2XJXaBOK-42" value="" style="endArrow=none;html=1;rounded=0;entryX=0.5;entryY=1;entryDx=0;entryDy=0;exitX=0.5;exitY=0;exitDx=0;exitDy=0;" parent="1" source="v5OyXtRUodhY2XJXaBOK-39" target="v5OyXtRUodhY2XJXaBOK-36" edge="1">
          <mxGeometry width="50" height="50" relative="1" as="geometry">
            <mxPoint x="860" y="570" as="sourcePoint" />
            <mxPoint x="910" y="520" as="targetPoint" />
          </mxGeometry>
        </mxCell>
        <mxCell id="v5OyXtRUodhY2XJXaBOK-49" value="" style="endArrow=none;html=1;rounded=0;entryX=0.789;entryY=0.933;entryDx=0;entryDy=0;entryPerimeter=0;exitX=0.299;exitY=0.059;exitDx=0;exitDy=0;exitPerimeter=0;" parent="1" source="v5OyXtRUodhY2XJXaBOK-40" target="v5OyXtRUodhY2XJXaBOK-36" edge="1">
          <mxGeometry width="50" height="50" relative="1" as="geometry">
            <mxPoint x="1000" y="530" as="sourcePoint" />
            <mxPoint x="1050" y="480" as="targetPoint" />
          </mxGeometry>
        </mxCell>
        <mxCell id="v5OyXtRUodhY2XJXaBOK-50" value="Valor_pag" style="ellipse;whiteSpace=wrap;html=1;" parent="1" vertex="1">
          <mxGeometry x="1040" y="444.38" width="60" height="30" as="geometry" />
        </mxCell>
        <mxCell id="v5OyXtRUodhY2XJXaBOK-51" value="&lt;u&gt;id_pag&lt;/u&gt;" style="ellipse;whiteSpace=wrap;html=1;" parent="1" vertex="1">
          <mxGeometry x="1040" y="380" width="60" height="30" as="geometry" />
        </mxCell>
        <mxCell id="v5OyXtRUodhY2XJXaBOK-54" value="" style="endArrow=none;html=1;rounded=0;entryX=1;entryY=1;entryDx=0;entryDy=0;exitX=0;exitY=0.5;exitDx=0;exitDy=0;" parent="1" source="v5OyXtRUodhY2XJXaBOK-50" target="VCrqgzYEbr3KQQ-ShSqz-51" edge="1">
          <mxGeometry width="50" height="50" relative="1" as="geometry">
            <mxPoint x="1020" y="450" as="sourcePoint" />
            <mxPoint x="1070" y="400" as="targetPoint" />
          </mxGeometry>
        </mxCell>
        <mxCell id="v5OyXtRUodhY2XJXaBOK-55" value="" style="endArrow=none;html=1;rounded=0;entryX=1;entryY=0.5;entryDx=0;entryDy=0;exitX=0;exitY=0.5;exitDx=0;exitDy=0;" parent="1" source="v5OyXtRUodhY2XJXaBOK-51" target="VCrqgzYEbr3KQQ-ShSqz-51" edge="1">
          <mxGeometry width="50" height="50" relative="1" as="geometry">
            <mxPoint x="1120" y="390" as="sourcePoint" />
            <mxPoint x="1170" y="340" as="targetPoint" />
          </mxGeometry>
        </mxCell>
        <mxCell id="v5OyXtRUodhY2XJXaBOK-56" value="&lt;u&gt;id_vec&lt;/u&gt;" style="ellipse;whiteSpace=wrap;html=1;" parent="1" vertex="1">
          <mxGeometry x="445" y="300" width="60" height="30" as="geometry" />
        </mxCell>
        <mxCell id="v5OyXtRUodhY2XJXaBOK-57" value="" style="endArrow=none;html=1;rounded=0;exitX=0;exitY=0.5;exitDx=0;exitDy=0;entryX=0.79;entryY=-0.004;entryDx=0;entryDy=0;entryPerimeter=0;" parent="1" source="v5OyXtRUodhY2XJXaBOK-56" target="VCrqgzYEbr3KQQ-ShSqz-7" edge="1">
          <mxGeometry width="50" height="50" relative="1" as="geometry">
            <mxPoint x="540" y="315" as="sourcePoint" />
            <mxPoint x="410" y="350" as="targetPoint" />
          </mxGeometry>
        </mxCell>
        <mxCell id="v5OyXtRUodhY2XJXaBOK-58" value="Status_vistoria" style="ellipse;whiteSpace=wrap;html=1;" parent="1" vertex="1">
          <mxGeometry x="225" y="275" width="90" height="28.75" as="geometry" />
        </mxCell>
        <mxCell id="v5OyXtRUodhY2XJXaBOK-59" value="" style="endArrow=none;html=1;rounded=0;entryX=0.556;entryY=0;entryDx=0;entryDy=0;entryPerimeter=0;exitX=0;exitY=0.75;exitDx=0;exitDy=0;" parent="1" source="VCrqgzYEbr3KQQ-ShSqz-7" target="v5OyXtRUodhY2XJXaBOK-60" edge="1">
          <mxGeometry width="50" height="50" relative="1" as="geometry">
            <mxPoint x="340" y="410" as="sourcePoint" />
            <mxPoint x="290.71039753093504" y="415.4025699904814" as="targetPoint" />
          </mxGeometry>
        </mxCell>
        <mxCell id="v5OyXtRUodhY2XJXaBOK-60" value="Valor_aluguel" style="ellipse;whiteSpace=wrap;html=1;" parent="1" vertex="1">
          <mxGeometry x="250" y="410" width="90" height="28.75" as="geometry" />
        </mxCell>
        <mxCell id="v5OyXtRUodhY2XJXaBOK-61" value="" style="endArrow=none;html=1;rounded=0;exitX=1;exitY=0.75;exitDx=0;exitDy=0;entryX=0.019;entryY=0.295;entryDx=0;entryDy=0;entryPerimeter=0;" parent="1" source="VCrqgzYEbr3KQQ-ShSqz-7" target="v5OyXtRUodhY2XJXaBOK-62" edge="1">
          <mxGeometry width="50" height="50" relative="1" as="geometry">
            <mxPoint x="530" y="390" as="sourcePoint" />
            <mxPoint x="480.71039753093504" y="405.4025699904814" as="targetPoint" />
          </mxGeometry>
        </mxCell>
        <mxCell id="v5OyXtRUodhY2XJXaBOK-62" value="Disponibilidade" style="ellipse;whiteSpace=wrap;html=1;" parent="1" vertex="1">
          <mxGeometry x="450" y="410" width="90" height="28.75" as="geometry" />
        </mxCell>
        <mxCell id="v5OyXtRUodhY2XJXaBOK-63" value="Placa" style="ellipse;whiteSpace=wrap;html=1;" parent="1" vertex="1">
          <mxGeometry x="30" y="668.75" width="60" height="30" as="geometry" />
        </mxCell>
        <mxCell id="v5OyXtRUodhY2XJXaBOK-64" value="" style="endArrow=none;html=1;rounded=0;entryX=0.337;entryY=1.014;entryDx=0;entryDy=0;entryPerimeter=0;exitX=0.5;exitY=0;exitDx=0;exitDy=0;" parent="1" source="v5OyXtRUodhY2XJXaBOK-63" target="VCrqgzYEbr3KQQ-ShSqz-21" edge="1">
          <mxGeometry width="50" height="50" relative="1" as="geometry">
            <mxPoint x="115" y="680" as="sourcePoint" />
            <mxPoint x="121.10000000000014" y="724.8" as="targetPoint" />
          </mxGeometry>
        </mxCell>
        <mxCell id="v5OyXtRUodhY2XJXaBOK-66" value="Placa" style="ellipse;whiteSpace=wrap;html=1;" parent="1" vertex="1">
          <mxGeometry x="290" y="680" width="60" height="30" as="geometry" />
        </mxCell>
        <mxCell id="v5OyXtRUodhY2XJXaBOK-67" value="" style="endArrow=none;html=1;rounded=0;entryX=0.337;entryY=1.014;entryDx=0;entryDy=0;entryPerimeter=0;exitX=0.5;exitY=0;exitDx=0;exitDy=0;" parent="1" source="v5OyXtRUodhY2XJXaBOK-66" edge="1">
          <mxGeometry width="50" height="50" relative="1" as="geometry">
            <mxPoint x="385" y="679.16" as="sourcePoint" />
            <mxPoint x="380.44000000000005" y="629.9999999999997" as="targetPoint" />
          </mxGeometry>
        </mxCell>
        <mxCell id="v5OyXtRUodhY2XJXaBOK-70" value="" style="endArrow=none;html=1;rounded=0;entryX=1;entryY=0.5;entryDx=0;entryDy=0;exitX=0;exitY=0.75;exitDx=0;exitDy=0;" parent="1" target="v5OyXtRUodhY2XJXaBOK-71" edge="1">
          <mxGeometry width="50" height="50" relative="1" as="geometry">
            <mxPoint x="70" y="600" as="sourcePoint" />
            <mxPoint x="20.71039753093504" y="622.9025699904814" as="targetPoint" />
          </mxGeometry>
        </mxCell>
        <mxCell id="v5OyXtRUodhY2XJXaBOK-71" value="Vidro_eletrico" style="ellipse;whiteSpace=wrap;html=1;" parent="1" vertex="1">
          <mxGeometry x="-90" y="601.25" width="100" height="28.75" as="geometry" />
        </mxCell>
        <mxCell id="v5OyXtRUodhY2XJXaBOK-72" value="" style="endArrow=none;html=1;rounded=0;entryX=0.983;entryY=0.336;entryDx=0;entryDy=0;entryPerimeter=0;exitX=0;exitY=1;exitDx=0;exitDy=0;" parent="1" source="VCrqgzYEbr3KQQ-ShSqz-21" target="v5OyXtRUodhY2XJXaBOK-73" edge="1">
          <mxGeometry width="50" height="50" relative="1" as="geometry">
            <mxPoint x="70" y="660" as="sourcePoint" />
            <mxPoint x="20.71039753093504" y="682.9025699904814" as="targetPoint" />
          </mxGeometry>
        </mxCell>
        <mxCell id="v5OyXtRUodhY2XJXaBOK-73" value="Direcao" style="ellipse;whiteSpace=wrap;html=1;" parent="1" vertex="1">
          <mxGeometry x="-90" y="640" width="100" height="28.75" as="geometry" />
        </mxCell>
        <mxCell id="v5OyXtRUodhY2XJXaBOK-75" value="Ar_condicionado" style="ellipse;whiteSpace=wrap;html=1;" parent="1" vertex="1">
          <mxGeometry x="-90" y="562.5" width="100" height="27.5" as="geometry" />
        </mxCell>
        <mxCell id="v5OyXtRUodhY2XJXaBOK-78" value="" style="endArrow=none;html=1;rounded=0;entryX=1;entryY=0.5;entryDx=0;entryDy=0;exitX=0;exitY=0.25;exitDx=0;exitDy=0;" parent="1" source="VCrqgzYEbr3KQQ-ShSqz-21" target="v5OyXtRUodhY2XJXaBOK-75" edge="1">
          <mxGeometry width="50" height="50" relative="1" as="geometry">
            <mxPoint x="60" y="600" as="sourcePoint" />
            <mxPoint x="110" y="550" as="targetPoint" />
          </mxGeometry>
        </mxCell>
        <mxCell id="v5OyXtRUodhY2XJXaBOK-79" value="Modelo" style="ellipse;whiteSpace=wrap;html=1;" parent="1" vertex="1">
          <mxGeometry x="450" y="450" width="90" height="28.75" as="geometry" />
        </mxCell>
        <mxCell id="v5OyXtRUodhY2XJXaBOK-82" value="" style="endArrow=none;html=1;rounded=0;entryX=0.675;entryY=1.026;entryDx=0;entryDy=0;entryPerimeter=0;exitX=0;exitY=0.5;exitDx=0;exitDy=0;" parent="1" source="v5OyXtRUodhY2XJXaBOK-79" target="VCrqgzYEbr3KQQ-ShSqz-7" edge="1">
          <mxGeometry width="50" height="50" relative="1" as="geometry">
            <mxPoint x="410" y="480" as="sourcePoint" />
            <mxPoint x="460" y="430" as="targetPoint" />
          </mxGeometry>
        </mxCell>
        <mxCell id="v5OyXtRUodhY2XJXaBOK-84" value="Ano" style="ellipse;whiteSpace=wrap;html=1;" parent="1" vertex="1">
          <mxGeometry x="110" y="670" width="90" height="28.75" as="geometry" />
        </mxCell>
        <mxCell id="v5OyXtRUodhY2XJXaBOK-86" value="" style="endArrow=none;html=1;rounded=0;entryX=0.75;entryY=1;entryDx=0;entryDy=0;exitX=0.5;exitY=0;exitDx=0;exitDy=0;" parent="1" source="v5OyXtRUodhY2XJXaBOK-84" target="VCrqgzYEbr3KQQ-ShSqz-21" edge="1">
          <mxGeometry width="50" height="50" relative="1" as="geometry">
            <mxPoint x="110" y="687.91" as="sourcePoint" />
            <mxPoint x="160.43999999999983" y="649.9999999999997" as="targetPoint" />
          </mxGeometry>
        </mxCell>
        <mxCell id="v5OyXtRUodhY2XJXaBOK-87" value="Ano" style="ellipse;whiteSpace=wrap;html=1;" parent="1" vertex="1">
          <mxGeometry x="235" y="640" width="90" height="28.75" as="geometry" />
        </mxCell>
        <mxCell id="v5OyXtRUodhY2XJXaBOK-88" value="" style="endArrow=none;html=1;rounded=0;entryX=0;entryY=0.75;entryDx=0;entryDy=0;exitX=0.5;exitY=0;exitDx=0;exitDy=0;" parent="1" source="v5OyXtRUodhY2XJXaBOK-87" target="VCrqgzYEbr3KQQ-ShSqz-22" edge="1">
          <mxGeometry width="50" height="50" relative="1" as="geometry">
            <mxPoint x="275" y="687.91" as="sourcePoint" />
            <mxPoint x="325" y="630" as="targetPoint" />
          </mxGeometry>
        </mxCell>
        <mxCell id="v5OyXtRUodhY2XJXaBOK-89" value="Ignicao" style="ellipse;whiteSpace=wrap;html=1;" parent="1" vertex="1">
          <mxGeometry x="395" y="680" width="90" height="28.75" as="geometry" />
        </mxCell>
        <mxCell id="v5OyXtRUodhY2XJXaBOK-90" value="" style="endArrow=none;html=1;rounded=0;exitX=0.5;exitY=0;exitDx=0;exitDy=0;entryX=0.861;entryY=1.014;entryDx=0;entryDy=0;entryPerimeter=0;" parent="1" source="v5OyXtRUodhY2XJXaBOK-89" target="VCrqgzYEbr3KQQ-ShSqz-22" edge="1">
          <mxGeometry width="50" height="50" relative="1" as="geometry">
            <mxPoint x="435" y="697.91" as="sourcePoint" />
            <mxPoint x="450" y="630" as="targetPoint" />
          </mxGeometry>
        </mxCell>
        <mxCell id="v5OyXtRUodhY2XJXaBOK-91" value="Modalidade" style="ellipse;whiteSpace=wrap;html=1;" parent="1" vertex="1">
          <mxGeometry x="340" y="710" width="90" height="28.75" as="geometry" />
        </mxCell>
        <mxCell id="v5OyXtRUodhY2XJXaBOK-94" value="" style="endArrow=none;html=1;rounded=0;exitX=0.5;exitY=0;exitDx=0;exitDy=0;" parent="1" source="v5OyXtRUodhY2XJXaBOK-91" edge="1">
          <mxGeometry width="50" height="50" relative="1" as="geometry">
            <mxPoint x="220" y="670" as="sourcePoint" />
            <mxPoint x="400" y="630" as="targetPoint" />
          </mxGeometry>
        </mxCell>
        <mxCell id="v5OyXtRUodhY2XJXaBOK-95" value="Idade_sugerida" style="ellipse;whiteSpace=wrap;html=1;" parent="1" vertex="1">
          <mxGeometry x="655" y="669.16" width="90" height="28.75" as="geometry" />
        </mxCell>
        <mxCell id="v5OyXtRUodhY2XJXaBOK-96" value="" style="endArrow=none;html=1;rounded=0;exitX=0.5;exitY=0;exitDx=0;exitDy=0;entryX=0.861;entryY=1.014;entryDx=0;entryDy=0;entryPerimeter=0;" parent="1" source="v5OyXtRUodhY2XJXaBOK-95" edge="1">
          <mxGeometry width="50" height="50" relative="1" as="geometry">
            <mxPoint x="690" y="697.0699999999999" as="sourcePoint" />
            <mxPoint x="683.3199999999999" y="629.9999999999997" as="targetPoint" />
          </mxGeometry>
        </mxCell>
        <mxCell id="v5OyXtRUodhY2XJXaBOK-99" value="" style="endArrow=none;html=1;rounded=0;entryX=1;entryY=0.5;entryDx=0;entryDy=0;exitX=0;exitY=0;exitDx=0;exitDy=0;" parent="1" source="VCrqgzYEbr3KQQ-ShSqz-21" target="v5OyXtRUodhY2XJXaBOK-100" edge="1">
          <mxGeometry width="50" height="50" relative="1" as="geometry">
            <mxPoint x="70.00000000000023" y="510" as="sourcePoint" />
            <mxPoint x="20.71039753093504" y="562.9025699904814" as="targetPoint" />
          </mxGeometry>
        </mxCell>
        <mxCell id="v5OyXtRUodhY2XJXaBOK-100" value="Motor" style="ellipse;whiteSpace=wrap;html=1;" parent="1" vertex="1">
          <mxGeometry x="-90" y="520" width="100" height="28.75" as="geometry" />
        </mxCell>
        <mxCell id="v5OyXtRUodhY2XJXaBOK-101" value="Cilindrada" style="ellipse;whiteSpace=wrap;html=1;" parent="1" vertex="1">
          <mxGeometry x="445" y="629.16" width="90" height="28.75" as="geometry" />
        </mxCell>
        <mxCell id="v5OyXtRUodhY2XJXaBOK-102" value="" style="endArrow=none;html=1;rounded=0;exitX=0.5;exitY=0;exitDx=0;exitDy=0;entryX=1;entryY=0.5;entryDx=0;entryDy=0;" parent="1" source="v5OyXtRUodhY2XJXaBOK-101" target="VCrqgzYEbr3KQQ-ShSqz-22" edge="1">
          <mxGeometry width="50" height="50" relative="1" as="geometry">
            <mxPoint x="480" y="657.0699999999999" as="sourcePoint" />
            <mxPoint x="473.32000000000016" y="590.0000000000001" as="targetPoint" />
          </mxGeometry>
        </mxCell>
        <mxCell id="v5OyXtRUodhY2XJXaBOK-103" value="Cartao_credito" style="ellipse;whiteSpace=wrap;html=1;" parent="1" vertex="1">
          <mxGeometry x="950" y="532.5" width="90" height="30" as="geometry" />
        </mxCell>
        <mxCell id="v5OyXtRUodhY2XJXaBOK-104" value="" style="endArrow=none;html=1;rounded=0;entryX=0.612;entryY=0.963;entryDx=0;entryDy=0;entryPerimeter=0;exitX=0.299;exitY=0.059;exitDx=0;exitDy=0;exitPerimeter=0;" parent="1" source="v5OyXtRUodhY2XJXaBOK-103" target="v5OyXtRUodhY2XJXaBOK-36" edge="1">
          <mxGeometry width="50" height="50" relative="1" as="geometry">
            <mxPoint x="963.21" y="562.5" as="sourcePoint" />
            <mxPoint x="940.0000000000005" y="508.6537500000004" as="targetPoint" />
          </mxGeometry>
        </mxCell>
      </root>
    </mxGraphModel>
  </diagram>
</mxfile>
